G04 #@! TF.GenerationSoftware,KiCad,Pcbnew,5.1.9-73d0e3b20d~88~ubuntu20.04.1*
G04 #@! TF.CreationDate,2021-02-08T09:08:18-05:00*
G04 #@! TF.ProjectId,inkplate-buttons,696e6b70-6c61-4746-952d-627574746f6e,rev?*
G04 #@! TF.SameCoordinates,Original*
G04 #@! TF.FileFunction,Copper,L1,Top*
G04 #@! TF.FilePolarity,Positive*
%FSLAX46Y46*%
G04 Gerber Fmt 4.6, Leading zero omitted, Abs format (unit mm)*
G04 Created by KiCad (PCBNEW 5.1.9-73d0e3b20d~88~ubuntu20.04.1) date 2021-02-08 09:08:18*
%MOMM*%
%LPD*%
G01*
G04 APERTURE LIST*
G04 #@! TA.AperFunction,SMDPad,CuDef*
%ADD10O,1.700000X1.700000*%
G04 #@! TD*
G04 #@! TA.AperFunction,SMDPad,CuDef*
%ADD11R,1.700000X1.700000*%
G04 #@! TD*
G04 #@! TA.AperFunction,SMDPad,CuDef*
%ADD12R,0.558800X0.952500*%
G04 #@! TD*
G04 #@! TA.AperFunction,Conductor*
%ADD13C,0.250000*%
G04 #@! TD*
G04 APERTURE END LIST*
D10*
X116000000Y-136760000D03*
X116000000Y-139300000D03*
X116000000Y-141840000D03*
X116000000Y-144380000D03*
X116000000Y-146920000D03*
X116000000Y-149460000D03*
D11*
X116000000Y-152000000D03*
D12*
X108145800Y-95181350D03*
X111854200Y-95181350D03*
X111854200Y-88818650D03*
X108145800Y-88818650D03*
X108145800Y-113181350D03*
X111854200Y-113181350D03*
X111854200Y-106818650D03*
X108145800Y-106818650D03*
X103145800Y-116818650D03*
X106854200Y-116818650D03*
X106854200Y-123181350D03*
X103145800Y-123181350D03*
X113145800Y-123181350D03*
X116854200Y-123181350D03*
X116854200Y-116818650D03*
X113145800Y-116818650D03*
X108145800Y-126818650D03*
X111854200Y-126818650D03*
X111854200Y-133181350D03*
X108145800Y-133181350D03*
X108145800Y-156818650D03*
X111854200Y-156818650D03*
X111854200Y-163181350D03*
X108145800Y-163181350D03*
D13*
X108145800Y-145854200D02*
X108145800Y-156818650D01*
X108145800Y-133181350D02*
X108145800Y-145854200D01*
X112238200Y-152000000D02*
X116000000Y-152000000D01*
X108145800Y-156092400D02*
X112238200Y-152000000D01*
X108145800Y-156818650D02*
X108145800Y-156092400D01*
X106854200Y-123181350D02*
X108181350Y-123181350D01*
X108181350Y-123181350D02*
X110000000Y-125000000D01*
X110000000Y-125000000D02*
X110000000Y-145000000D01*
X111920000Y-146920000D02*
X116000000Y-146920000D01*
X110000000Y-145000000D02*
X111920000Y-146920000D01*
X111854200Y-95181350D02*
X117181350Y-95181350D01*
X117181350Y-95181350D02*
X119000000Y-97000000D01*
X119000000Y-138840000D02*
X116000000Y-141840000D01*
X119000000Y-97000000D02*
X119000000Y-138840000D01*
X111854200Y-113181350D02*
X113181350Y-113181350D01*
X113181350Y-113181350D02*
X115000000Y-115000000D01*
X115000000Y-135760000D02*
X116000000Y-136760000D01*
X115000000Y-115000000D02*
X115000000Y-135760000D01*
X116181350Y-156818650D02*
X111854200Y-156818650D01*
X118000000Y-155000000D02*
X116181350Y-156818650D01*
X118000000Y-150000000D02*
X118000000Y-155000000D01*
X117460000Y-149460000D02*
X118000000Y-150000000D01*
X116000000Y-149460000D02*
X117460000Y-149460000D01*
X111854200Y-133181350D02*
X111854200Y-142854200D01*
X111854200Y-142854200D02*
X113380000Y-144380000D01*
X114620000Y-144380000D02*
X116000000Y-144380000D01*
X113380000Y-144380000D02*
X114620000Y-144380000D01*
X116854200Y-123181350D02*
X117181350Y-123181350D01*
X116854200Y-123181350D02*
X116854200Y-124854200D01*
X116854200Y-124854200D02*
X118000000Y-126000000D01*
X118000000Y-137300000D02*
X116000000Y-139300000D01*
X118000000Y-126000000D02*
X118000000Y-137300000D01*
X108145800Y-95181350D02*
X108145800Y-106854200D01*
X107964450Y-113000000D02*
X108145800Y-113181350D01*
X104291600Y-113000000D02*
X107964450Y-113000000D01*
X103145800Y-114145800D02*
X104291600Y-113000000D01*
X103145800Y-116818650D02*
X103145800Y-114145800D01*
X108145800Y-113181350D02*
X108145800Y-114854200D01*
X110110250Y-116818650D02*
X113145800Y-116818650D01*
X108145800Y-114854200D02*
X110110250Y-116818650D01*
X103145800Y-123181350D02*
X103145800Y-124854200D01*
X103145800Y-124854200D02*
X105000000Y-126708400D01*
X108035550Y-126708400D02*
X108145800Y-126818650D01*
X105000000Y-126708400D02*
X108035550Y-126708400D01*
M02*
